<?xml version="1.0" encoding="utf-8"?>
<!-- Generator: Adobe Illustrator 18.0.0, SVG Export Plug-In . SVG Version: 6.00 Build 0)  -->
<!DOCTYPE svg PUBLIC "-//W3C//DTD SVG 1.1//EN" "http://www.w3.org/Graphics/SVG/1.1/DTD/svg11.dtd">
<svg version="1.1" id="Layer_1" xmlns="http://www.w3.org/2000/svg" xmlns:xlink="http://www.w3.org/1999/xlink" x="0px" y="0px"
     viewBox="0 0 34 34" enable-background="new 0 0 34 34" xml:space="preserve">
<path fill="#0094D4" d="M855.6,65.3c0,7.7-6.2,14-14,14h-38.3c-7.7,0-14-6.2-14-14V27c0-7.7,6.2-14,14-14h38.3c7.7,0,14,6.2,14,14
	V65.3z"/>
    <path fill="#231F20" d="M910.4,56.8c0,9.5-7.6,15.6-18.9,15.6c-7.3,0-12.9-1.8-17.3-5.4c-1.6-1.3-1.9-3.7-0.8-5.3
	c1.3-1.7,3.4-2.1,5.4-0.8c3.3,2.4,6.3,4.4,13.3,4.4c6.6,0,10.4-3.5,10.4-8.1c0-3.4-2.2-5.6-7.8-7c-3.3-0.8-3.3-0.7-7-1.7
	c-9.1-2.3-13.7-6.5-13.7-13.8c0-9.2,7.5-15.1,18.2-15.1c5.5,0,10.9,1.8,13.9,4.2c1.9,1.6,1.7,4.2,0.5,5.5c-1.3,1.5-3.4,1.6-5.3,0.5
	c-3.1-1.8-6-2.9-9.4-2.9c-6.8,0-10.2,2.8-10.2,7.6c0,3.1,1.7,5.2,7.6,6.7c3.1,0.9,6.5,1.6,8.1,1.9C905.9,45.3,910.4,49.7,910.4,56.8
	z"/>
    <path fill="#231F20" d="M915.3,24.4c0-2.2,1.7-4.1,3.9-4.1c2.2,0,4,1.9,4,4.1v28.2c0,7.6,4.9,12.3,13,12.3c6.1,0,10.6-1.8,13.4-3.6
	V24.4c0-2.2,1.7-4.1,3.9-4.1c2.1,0,4,1.9,4,4.1v38.9c0,1.6-0.5,2.4-1.7,3.2c-2.9,2-9.6,5.8-19.7,5.8c-12.5,0-20.9-7.1-20.9-19.9
	V24.4z"/>
    <path fill="#231F20" d="M1034.9,67.8c0,2.3-1.7,4.1-3.9,4.1c-2.1,0-4-1.8-4-4.1V40c0-9-3.9-12.8-11.1-12.8c-5.5,0-9.1,2.4-11.1,5.2
	v35.5c0,2.3-1.7,4.1-3.9,4.1c-2.1,0-4-1.8-4-4.1V39.1c0-8.4-4.3-12-11.1-12c-7.6,0-10.8,3-11.1,3.2v37.5c0,2.3-1.7,4.1-3.9,4.1
	c-2.1,0-4-1.8-4-4.1V28.5c0-1.8,0.6-2.6,2-3.8c3.7-2.8,10-5.1,16.8-5.1c7.1,0,12,2,15,5.9c3-2.5,7.5-5.9,15.4-5.9
	c13.3,0,18.8,7.1,18.8,19.9V67.8z"/>
    <path fill="#231F20" d="M1085.4,38.9c0.3,4,0.3,9.9,0,13.8c-0.7,11.4-9.6,19.7-21.7,19.7c-12,0-21-8.3-21.7-19.7
	c-0.2-3.9-0.2-9.8,0-13.8c0.7-11.4,9.7-19.3,21.7-19.3C1075.8,19.7,1084.8,27.5,1085.4,38.9z M1049.9,39.5c-0.2,3.4-0.2,9.4,0,12.8
	c0.7,7.6,5.9,12.7,13.8,12.7c7.9,0,13.1-5.2,13.8-12.7c0.2-3.3,0.2-9.3,0-12.8c-0.5-7.2-5.6-12.5-13.8-12.5
	C1055.6,27.1,1050.4,32.3,1049.9,39.5z"/>
    <path fill="#0094D4" d="M1101.1,6.4v61.4c0,2.3-1.7,4.1-4,4.1c-2.1,0-3.9-1.8-3.9-4.1V6.4c0-2.2,1.7-4,3.9-4
	C1099.2,2.4,1101.1,4.2,1101.1,6.4z"/>
    <path fill="#0094D4" d="M1152.1,38.9c0.3,4,0.3,9.9,0,13.8c-0.7,11.4-9.6,19.7-21.7,19.7c-12,0-21-8.3-21.7-19.7
	c-0.2-3.9-0.2-9.8,0-13.8c0.7-11.4,9.7-19.3,21.7-19.3C1142.5,19.7,1151.4,27.5,1152.1,38.9z M1116.6,39.5c-0.2,3.4-0.2,9.4,0,12.8
	c0.7,7.6,5.9,12.7,13.8,12.7c7.9,0,13.1-5.2,13.8-12.7c0.2-3.3,0.2-9.3,0-12.8c-0.5-7.2-5.6-12.5-13.8-12.5
	C1122.2,27.1,1117.1,32.3,1116.6,39.5z"/>
    <path fill="#0094D4" d="M1200.4,67.9c0,13.2-7.9,21.9-24.3,21.9c-3.2,0-6.9-0.4-10.9-1.1c-1.9-0.4-3.5-1.6-3.5-3.6
	c0-2.1,1.6-4.4,4.6-3.8c3.8,0.8,7.1,1.2,10.1,1.2c11,0,16.2-5.3,16.2-14.8c-3.5,1.7-8.6,3.3-14.4,3.3c-12.1,0-19.4-7.9-20-19.4
	c-0.2-3.8-0.2-8.5,0-12.3c0.7-11.6,8.7-19.8,20.3-19.8c10.2,0,17.7,3.8,20.3,5.8c1.3,0.8,1.7,1.9,1.7,3.4V67.9z M1166,39.9
	c-0.2,3.4-0.1,8,0,11.3c0.6,7.6,4.5,12.5,12.4,12.5c7.9,0,12.4-2.5,14.2-4V30.7c-0.3-0.3-5.5-3.5-13.1-3.5
	C1170.5,27.1,1166.6,32.3,1166,39.9z"/>
    <path fill="#0094D4" d="M1213.8,12.6c-2.7,0-4.8-2.3-4.8-5c0-2.7,2-4.9,4.8-4.9c2.7,0,4.9,2.1,4.9,4.9
	C1218.7,10.2,1216.6,12.6,1213.8,12.6z M1217.8,24.4v43.4c0,2.3-1.7,4.1-4,4.1c-2,0-3.9-1.8-3.9-4.1V24.4c0-2.2,1.7-4.1,3.9-4.1
	C1216.1,20.3,1217.8,22.2,1217.8,24.4z"/>
    <path fill="#0094D4" d="M1259.8,56.7c0.9-1.9,2.1-2.6,3.8-2.6c2,0,3.7,1.7,3.7,4c0,4.5-6.5,14.3-20,14.3c-12.6,0-21.1-8.7-21.8-19.7
	c-0.2-3.9-0.2-9.9,0-13.8c0.7-11.4,9.6-19.3,21.8-19.3c13.5,0,19.9,9.9,19.9,14.3c0,2.3-1.7,4-3.7,4c-1.6,0-2.9-0.7-3.8-2.6
	c-2.2-5.6-7.2-8.3-12.3-8.3c-8.2,0-13.4,4.9-14,12.4c-0.2,2.6-0.2,9.4,0,12.8c0.7,7.2,5.4,12.7,14,12.7
	C1252.4,65,1257.5,62.4,1259.8,56.7z"/>
    <g>
	<g>
		<path fill="#FFFFFF" d="M826.4,38.9c-2.3,0-5.4,0-7.9,0V54c2.5,0,5.6,0,7.9,0V38.9z"/>
        <path fill="#FFFFFF" d="M826.4,32.2c0-2.2-1.8-4-4-4c-2.2,0-3.9,1.7-3.9,4v9.4c2.5,0,5.6,0,7.9,0V32.2z"/>
        <path fill="#FFFFFF" d="M818.5,60.1c0,2.2,1.8,4,4,4c2.2,0,3.9-1.8,3.9-4v-9.4c-2.5,0-5.6,0-7.9,0V60.1z"/>
	</g>
        <g>
		<path fill="#FFFFFF" d="M815.2,42.2c0,2.3,0,5.4,0,7.9h15.1c0-2.5,0-5.6,0-7.9H815.2z"/>
            <path fill="#FFFFFF" d="M808.5,42.2c-2.2,0-4,1.8-4,4c0,2.2,1.7,3.9,4,3.9h9.4c0-2.5,0-5.6,0-7.9H808.5z"/>
            <path fill="#FFFFFF" d="M836.4,50.1c2.2,0,4-1.8,4-4c0-2.2-1.8-3.9-4-3.9H827c0,2.5,0,5.6,0,7.9H836.4z"/>
	</g>
</g>
    <path fill="#0094D4" d="M29.3,23.7c0,2.9-2.3,5.2-5.2,5.2H9.9c-2.9,0-5.2-2.3-5.2-5.2V9.5c0-2.9,2.3-5.2,5.2-5.2h14.2
	c2.9,0,5.2,2.3,5.2,5.2V23.7z"/>
    <path fill="#FFFFFF" d="M18.5,14c-0.9,0-2,0-2.9,0v5.6c0.9,0,2.1,0,2.9,0V14z"/>
    <path fill="#FFFFFF" d="M18.5,11.5c0-0.8-0.7-1.5-1.5-1.5c-0.8,0-1.4,0.6-1.4,1.5v3.5c0.9,0,2.1,0,2.9,0V11.5z"/>
    <path fill="#FFFFFF" d="M15.5,21.8c0,0.8,0.7,1.5,1.5,1.5c0.8,0,1.4-0.6,1.4-1.5v-3.5c-0.9,0-2.1,0-2.9,0V21.8z"/>
    <g>
	<path fill="#FFFFFF" d="M14.3,15.2c0,0.9,0,2,0,2.9h5.6c0-0.9,0-2.1,0-2.9H14.3z"/>
        <path fill="#FFFFFF" d="M11.8,15.2c-0.8,0-1.5,0.7-1.5,1.5c0,0.8,0.6,1.4,1.5,1.4h3.5c0-0.9,0-2.1,0-2.9H11.8z"/>
        <path fill="#FFFFFF" d="M22.2,18.1c0.8,0,1.5-0.7,1.5-1.5c0-0.8-0.6-1.4-1.5-1.4h-3.5c0,0.9,0,2.1,0,2.9H22.2z"/>
</g>
</svg>
